G04 #@! TF.FileFunction,Copper,L2,Bot,Signal*
%FSLAX46Y46*%
G04 Gerber Fmt 4.6, Leading zero omitted, Abs format (unit mm)*
G04 Created by KiCad (PCBNEW 201610091317+7290~55~ubuntu16.04.1-) date Fri Oct 21 11:28:09 2016*
%MOMM*%
%LPD*%
G01*
G04 APERTURE LIST*
%ADD10C,0.100000*%
%ADD11C,1.300000*%
%ADD12R,1.300000X1.300000*%
%ADD13C,1.998980*%
%ADD14C,2.250000*%
%ADD15C,2.500000*%
%ADD16C,3.000000*%
%ADD17R,1.200000X0.750000*%
%ADD18R,0.750000X1.200000*%
%ADD19R,1.500000X1.250000*%
%ADD20R,2.500000X2.000000*%
%ADD21R,1.800860X2.499360*%
%ADD22R,0.450000X0.590000*%
%ADD23R,1.400000X1.340000*%
%ADD24R,3.500000X4.200000*%
%ADD25R,1.500000X1.300000*%
%ADD26R,0.800100X0.800100*%
%ADD27R,0.900000X1.200000*%
%ADD28R,1.300000X1.500000*%
%ADD29R,2.000000X1.700000*%
%ADD30R,1.200000X0.900000*%
%ADD31O,1.473200X0.609600*%
%ADD32C,1.524000*%
%ADD33C,1.400000*%
%ADD34R,1.524000X1.524000*%
%ADD35C,0.600000*%
%ADD36C,1.000000*%
%ADD37C,0.400000*%
%ADD38C,0.250000*%
%ADD39C,0.254000*%
G04 APERTURE END LIST*
D10*
D11*
X133096000Y-114102000D03*
D12*
X133096000Y-117602000D03*
D13*
X90678000Y-112473740D03*
X90678000Y-117475000D03*
D14*
X89789000Y-94361000D03*
X89789000Y-99364800D03*
D15*
X98247200Y-127531900D03*
D16*
X110447200Y-127531900D03*
X110497200Y-115481900D03*
D15*
X98247200Y-115531900D03*
D16*
X96297200Y-121481900D03*
D12*
X103701840Y-108239560D03*
D11*
X108701840Y-108239560D03*
D12*
X97536000Y-106045000D03*
D11*
X92536000Y-106045000D03*
D17*
X124147500Y-104648000D03*
X126047500Y-104648000D03*
D12*
X113924080Y-97525840D03*
D11*
X108924080Y-97525840D03*
X131953000Y-128468000D03*
D12*
X131953000Y-124968000D03*
D18*
X133858000Y-102240000D03*
X133858000Y-104140000D03*
D19*
X126555500Y-101854000D03*
X124055500Y-101854000D03*
D17*
X113919000Y-106807000D03*
X112019000Y-106807000D03*
X119888000Y-110363000D03*
X121788000Y-110363000D03*
D20*
X132143500Y-94361000D03*
X132143500Y-97761000D03*
D21*
X100863400Y-119291100D03*
X100863400Y-123289060D03*
D22*
X116459000Y-108585000D03*
X116459000Y-106475000D03*
D23*
X136550400Y-99390200D03*
X138734800Y-99390200D03*
D24*
X137668000Y-103124000D03*
D25*
X107551240Y-94556580D03*
X110251240Y-94556580D03*
D14*
X89789000Y-122250200D03*
X89789000Y-127254000D03*
D26*
X125095000Y-126751000D03*
X125095000Y-128651000D03*
X123096020Y-127701000D03*
D27*
X127762000Y-126578000D03*
X127762000Y-128778000D03*
D28*
X111379000Y-104427000D03*
X111379000Y-101727000D03*
X108839000Y-104427000D03*
X108839000Y-101727000D03*
X113919000Y-101727000D03*
X113919000Y-104427000D03*
D29*
X107315000Y-112268000D03*
X111315000Y-112268000D03*
X114046000Y-112268000D03*
X118046000Y-112268000D03*
D28*
X113157000Y-118491000D03*
X113157000Y-121191000D03*
D30*
X126746000Y-93980000D03*
X124546000Y-93980000D03*
X124165000Y-106680000D03*
X126365000Y-106680000D03*
X129540000Y-106807000D03*
X131740000Y-106807000D03*
X131699000Y-109156500D03*
X129499000Y-109156500D03*
D27*
X131699000Y-104181000D03*
X131699000Y-101981000D03*
D30*
X111846000Y-108966000D03*
X114046000Y-108966000D03*
D27*
X134112000Y-122768000D03*
X134112000Y-124968000D03*
D31*
X118237000Y-124396500D03*
X118237000Y-123126500D03*
X118237000Y-121856500D03*
X118237000Y-120586500D03*
X123825000Y-120586500D03*
X123825000Y-121856500D03*
X123825000Y-123126500D03*
X123825000Y-124396500D03*
D32*
X120269000Y-107607100D03*
X120269000Y-104584500D03*
X120269000Y-101587300D03*
X120269000Y-98564700D03*
X120269000Y-95567500D03*
X138785600Y-107581700D03*
X138760200Y-95567500D03*
D33*
X122936000Y-116332000D03*
X120661000Y-116357000D03*
X125211000Y-116332000D03*
D34*
X104775000Y-94615000D03*
X104775000Y-99822000D03*
X94437200Y-99822000D03*
X94361000Y-94615000D03*
D14*
X139700000Y-122809000D03*
X139700000Y-127812800D03*
X139700000Y-117805200D03*
D30*
X126830000Y-97409000D03*
X124630000Y-97409000D03*
D35*
X101346000Y-99949000D03*
X131318000Y-122936000D03*
X135890000Y-126492000D03*
X118046500Y-119634000D03*
X118046500Y-113665000D03*
X119923620Y-120368376D03*
X116360860Y-117272041D03*
X115189000Y-104838500D03*
D36*
X106602820Y-97155000D02*
X105680000Y-97155000D01*
X105680000Y-97155000D02*
X104775000Y-98060000D01*
X104775000Y-98060000D02*
X104775000Y-99822000D01*
X107551240Y-94556580D02*
X107551240Y-96206580D01*
X107551240Y-96206580D02*
X106602820Y-97155000D01*
X101346000Y-99949000D02*
X104648000Y-99949000D01*
X104648000Y-99949000D02*
X104775000Y-99822000D01*
X94437200Y-99822000D02*
X94437200Y-108714540D01*
X94437200Y-108714540D02*
X90678000Y-112473740D01*
X97536000Y-106045000D02*
X101507280Y-106045000D01*
X101507280Y-106045000D02*
X103701840Y-108239560D01*
X104775000Y-94615000D02*
X103013000Y-94615000D01*
X103013000Y-94615000D02*
X97536000Y-100092000D01*
X97536000Y-100092000D02*
X97536000Y-106045000D01*
D37*
X131318000Y-122936000D02*
X133944000Y-122936000D01*
X133944000Y-122936000D02*
X134112000Y-122768000D01*
X132913001Y-105481001D02*
X133096000Y-105664000D01*
X133096000Y-105664000D02*
X133096000Y-114102000D01*
X125095000Y-128651000D02*
X127635000Y-128651000D01*
X127635000Y-128651000D02*
X127762000Y-128778000D01*
X126047500Y-104648000D02*
X127047500Y-104648000D01*
X127047500Y-104648000D02*
X127880501Y-105481001D01*
X127880501Y-105481001D02*
X132913001Y-105481001D01*
D36*
X133096000Y-117602000D02*
X136398000Y-117602000D01*
X136398000Y-117602000D02*
X136525000Y-117475000D01*
X134112000Y-124968000D02*
X136855200Y-124968000D01*
X136855200Y-124968000D02*
X139700000Y-127812800D01*
X136525000Y-106767000D02*
X136525000Y-117475000D01*
X136525000Y-117475000D02*
X136525000Y-122405000D01*
X136525000Y-122405000D02*
X134112000Y-124818000D01*
D37*
X134112000Y-124818000D02*
X134112000Y-124968000D01*
D36*
X137668000Y-103124000D02*
X137668000Y-105624000D01*
X137668000Y-105624000D02*
X136525000Y-106767000D01*
D38*
X130749489Y-125271511D02*
X131053000Y-124968000D01*
X131053000Y-124968000D02*
X131953000Y-124968000D01*
X123462559Y-125271511D02*
X130749489Y-125271511D01*
X123372368Y-125181320D02*
X123462559Y-125271511D01*
X111771966Y-125181320D02*
X123372368Y-125181320D01*
X105881747Y-119291100D02*
X111771966Y-125181320D01*
X100863400Y-119291100D02*
X105881747Y-119291100D01*
D36*
X131953000Y-124968000D02*
X134112000Y-124968000D01*
X137668000Y-103124000D02*
X135518000Y-103124000D01*
X135518000Y-103124000D02*
X134634000Y-102240000D01*
D37*
X134634000Y-102240000D02*
X134633000Y-102240000D01*
D36*
X134633000Y-102240000D02*
X133858000Y-102240000D01*
D38*
X100863400Y-119291100D02*
X99712970Y-119291100D01*
X99712970Y-119291100D02*
X98247200Y-117825330D01*
X98247200Y-117825330D02*
X98247200Y-117299666D01*
X98247200Y-117299666D02*
X98247200Y-115531900D01*
D36*
X124055500Y-101854000D02*
X124055500Y-97983500D01*
X124055500Y-97983500D02*
X124630000Y-97409000D01*
X108701840Y-108239560D02*
X108701840Y-110881160D01*
X108701840Y-110881160D02*
X107315000Y-112268000D01*
X124147500Y-104648000D02*
X124147500Y-101946000D01*
X124147500Y-101946000D02*
X124055500Y-101854000D01*
X120269000Y-101587300D02*
X123788800Y-101587300D01*
X123788800Y-101587300D02*
X124055500Y-101854000D01*
X111379000Y-101727000D02*
X113919000Y-101727000D01*
X108839000Y-101727000D02*
X111379000Y-101727000D01*
X108924080Y-97525840D02*
X108924080Y-101641920D01*
X108924080Y-101641920D02*
X108839000Y-101727000D01*
X108924080Y-97525840D02*
X110251240Y-96198680D01*
X110251240Y-96198680D02*
X110251240Y-94556580D01*
X131699000Y-104181000D02*
X133817000Y-104181000D01*
X133817000Y-104181000D02*
X133858000Y-104140000D01*
X126830000Y-97409000D02*
X131791500Y-97409000D01*
X131791500Y-97409000D02*
X132143500Y-97761000D01*
X126555500Y-101854000D02*
X126555500Y-97683500D01*
X126555500Y-97683500D02*
X126830000Y-97409000D01*
D37*
X118745000Y-115062000D02*
X119888000Y-113919000D01*
X119888000Y-113919000D02*
X119888000Y-112861002D01*
X114173000Y-115062000D02*
X118745000Y-115062000D01*
X111633000Y-117602000D02*
X114173000Y-115062000D01*
X111633000Y-120717000D02*
X111633000Y-117602000D01*
X113157000Y-121191000D02*
X112107000Y-121191000D01*
X112107000Y-121191000D02*
X111633000Y-120717000D01*
X119888000Y-110363000D02*
X119888000Y-112861002D01*
X113157000Y-121091000D02*
X113157000Y-121191000D01*
X113157000Y-121191000D02*
X114207000Y-121191000D01*
X114207000Y-121191000D02*
X116142500Y-123126500D01*
X117100400Y-123126500D02*
X118237000Y-123126500D01*
X116142500Y-123126500D02*
X117100400Y-123126500D01*
X119663000Y-110363000D02*
X119888000Y-110363000D01*
X118888000Y-109588000D02*
X119663000Y-110363000D01*
X118567002Y-109588000D02*
X118888000Y-109588000D01*
X116047001Y-107964999D02*
X116944001Y-107964999D01*
X115046000Y-108966000D02*
X116047001Y-107964999D01*
X116944001Y-107964999D02*
X118567002Y-109588000D01*
X114046000Y-108966000D02*
X115046000Y-108966000D01*
X113919000Y-106807000D02*
X113919000Y-108839000D01*
X113919000Y-108839000D02*
X114046000Y-108966000D01*
X123825000Y-121856500D02*
X123393200Y-121856500D01*
X123393200Y-121856500D02*
X121788000Y-120251300D01*
X121788000Y-120251300D02*
X121788000Y-111138000D01*
X121788000Y-111138000D02*
X121788000Y-110363000D01*
X121788000Y-110363000D02*
X129142500Y-110363000D01*
X129142500Y-110363000D02*
X129499000Y-110006500D01*
X129499000Y-110006500D02*
X129499000Y-109156500D01*
X120269000Y-107607100D02*
X120269000Y-108844000D01*
X120269000Y-108844000D02*
X121788000Y-110363000D01*
X112244000Y-106807000D02*
X113019000Y-106032000D01*
X112019000Y-106807000D02*
X112244000Y-106807000D01*
X112244000Y-106807000D02*
X112944001Y-106106999D01*
X112944001Y-106106999D02*
X114985997Y-106106999D01*
X117328579Y-107607100D02*
X119191370Y-107607100D01*
X113019000Y-106032000D02*
X114910998Y-106032000D01*
X114910998Y-106032000D02*
X116318986Y-107439988D01*
X116318986Y-107439988D02*
X117161467Y-107439988D01*
X117161467Y-107439988D02*
X117328579Y-107607100D01*
X119191370Y-107607100D02*
X120269000Y-107607100D01*
D36*
X111379000Y-104427000D02*
X111379000Y-106167000D01*
X111379000Y-106167000D02*
X112019000Y-106807000D01*
X108839000Y-104427000D02*
X111379000Y-104427000D01*
X126746000Y-93980000D02*
X131762500Y-93980000D01*
X131762500Y-93980000D02*
X132143500Y-94361000D01*
D38*
X100863400Y-123289060D02*
X109349362Y-123289060D01*
X109349362Y-123289060D02*
X113761302Y-127701000D01*
X113761302Y-127701000D02*
X122445970Y-127701000D01*
X122445970Y-127701000D02*
X123096020Y-127701000D01*
X100863400Y-123289060D02*
X100863400Y-123638310D01*
X100863400Y-123289060D02*
X100863400Y-124915700D01*
X100863400Y-124915700D02*
X98247200Y-127531900D01*
D37*
X114751000Y-110363000D02*
X113393000Y-110363000D01*
X113393000Y-110363000D02*
X111996000Y-108966000D01*
X111996000Y-108966000D02*
X111846000Y-108966000D01*
X116459000Y-108585000D02*
X116459000Y-108655000D01*
X116459000Y-108655000D02*
X114751000Y-110363000D01*
X116459000Y-106475000D02*
X118378500Y-106475000D01*
X118378500Y-106475000D02*
X120269000Y-104584500D01*
D36*
X120269000Y-104584500D02*
X122364500Y-106680000D01*
X122364500Y-106680000D02*
X124165000Y-106680000D01*
D37*
X127762000Y-126578000D02*
X135804000Y-126578000D01*
X135804000Y-126578000D02*
X135890000Y-126492000D01*
X125095000Y-126751000D02*
X127589000Y-126751000D01*
X127589000Y-126751000D02*
X127762000Y-126578000D01*
X118237000Y-120586500D02*
X119705496Y-120586500D01*
X118046500Y-119634000D02*
X118046500Y-120396000D01*
X118046500Y-120396000D02*
X118237000Y-120586500D01*
X118046000Y-112268000D02*
X118046000Y-113664500D01*
X118046000Y-113664500D02*
X118046500Y-113665000D01*
X119705496Y-120586500D02*
X119923620Y-120368376D01*
D36*
X123825000Y-120586500D02*
X123825000Y-117221000D01*
X123825000Y-117221000D02*
X122936000Y-116332000D01*
X120269000Y-95567500D02*
X122958500Y-95567500D01*
X122958500Y-95567500D02*
X124546000Y-93980000D01*
D37*
X118237000Y-124396500D02*
X119373600Y-124396500D01*
X119373600Y-124396500D02*
X120904000Y-122866100D01*
X119558041Y-117272041D02*
X116360860Y-117272041D01*
X120904000Y-122866100D02*
X120904000Y-118618000D01*
X120904000Y-118618000D02*
X119558041Y-117272041D01*
X118237000Y-124396500D02*
X118668800Y-124396500D01*
X115189000Y-104838500D02*
X114330500Y-104838500D01*
X114330500Y-104838500D02*
X113919000Y-104427000D01*
D36*
X111315000Y-112268000D02*
X114046000Y-112268000D01*
D37*
X113157000Y-118591000D02*
X116422500Y-121856500D01*
X113157000Y-118491000D02*
X113157000Y-118591000D01*
X116422500Y-121856500D02*
X117100400Y-121856500D01*
X117100400Y-121856500D02*
X118237000Y-121856500D01*
D38*
X126365000Y-106680000D02*
X129413000Y-106680000D01*
X129413000Y-106680000D02*
X129540000Y-106807000D01*
D36*
X125561600Y-124396500D02*
X131695999Y-118262101D01*
X123825000Y-124396500D02*
X125561600Y-124396500D01*
X131695999Y-118262101D02*
X131695999Y-110609501D01*
X131695999Y-110609501D02*
X131699000Y-110606500D01*
X131699000Y-109156500D02*
X131699000Y-110606500D01*
X131740000Y-106807000D02*
X131740000Y-109115500D01*
X131740000Y-109115500D02*
X131699000Y-109156500D01*
X131699000Y-101981000D02*
X134289800Y-99390200D01*
X134289800Y-99390200D02*
X136550400Y-99390200D01*
X138734800Y-99390200D02*
X136550400Y-99390200D01*
X138760200Y-95567500D02*
X138760200Y-99364800D01*
X138760200Y-99364800D02*
X138734800Y-99390200D01*
X94361000Y-94615000D02*
X90043000Y-94615000D01*
X90043000Y-94615000D02*
X89789000Y-94361000D01*
D39*
G36*
X96520000Y-96139000D02*
X88209000Y-96139000D01*
X88209000Y-95603947D01*
X88725658Y-95603947D01*
X88839621Y-95883773D01*
X89494629Y-96131170D01*
X90194451Y-96109075D01*
X90738379Y-95883773D01*
X90852342Y-95603947D01*
X89789000Y-94540605D01*
X88725658Y-95603947D01*
X88209000Y-95603947D01*
X88209000Y-95172221D01*
X88266227Y-95310379D01*
X88546053Y-95424342D01*
X89609395Y-94361000D01*
X89968605Y-94361000D01*
X91031947Y-95424342D01*
X91311773Y-95310379D01*
X91559170Y-94655371D01*
X91558898Y-94646750D01*
X93345000Y-94646750D01*
X93345000Y-95249309D01*
X93441673Y-95482698D01*
X93620301Y-95661327D01*
X93853690Y-95758000D01*
X94456250Y-95758000D01*
X94615000Y-95599250D01*
X94615000Y-94488000D01*
X94869000Y-94488000D01*
X94869000Y-95599250D01*
X95027750Y-95758000D01*
X95630310Y-95758000D01*
X95863699Y-95661327D01*
X96042327Y-95482698D01*
X96139000Y-95249309D01*
X96139000Y-94646750D01*
X95980250Y-94488000D01*
X94869000Y-94488000D01*
X94615000Y-94488000D01*
X93503750Y-94488000D01*
X93345000Y-94646750D01*
X91558898Y-94646750D01*
X91537075Y-93955549D01*
X91337069Y-93472691D01*
X93345000Y-93472691D01*
X93345000Y-94075250D01*
X93503750Y-94234000D01*
X94615000Y-94234000D01*
X94615000Y-93122750D01*
X94869000Y-93122750D01*
X94869000Y-94234000D01*
X95980250Y-94234000D01*
X96139000Y-94075250D01*
X96139000Y-93472691D01*
X96042327Y-93239302D01*
X95863699Y-93060673D01*
X95630310Y-92964000D01*
X95027750Y-92964000D01*
X94869000Y-93122750D01*
X94615000Y-93122750D01*
X94456250Y-92964000D01*
X93853690Y-92964000D01*
X93620301Y-93060673D01*
X93441673Y-93239302D01*
X93345000Y-93472691D01*
X91337069Y-93472691D01*
X91311773Y-93411621D01*
X91031947Y-93297658D01*
X89968605Y-94361000D01*
X89609395Y-94361000D01*
X88546053Y-93297658D01*
X88266227Y-93411621D01*
X88209000Y-93563135D01*
X88209000Y-93118053D01*
X88725658Y-93118053D01*
X89789000Y-94181395D01*
X90852342Y-93118053D01*
X90738379Y-92838227D01*
X90083371Y-92590830D01*
X89383549Y-92612925D01*
X88839621Y-92838227D01*
X88725658Y-93118053D01*
X88209000Y-93118053D01*
X88209000Y-91948000D01*
X96520000Y-91948000D01*
X96520000Y-96139000D01*
X96520000Y-96139000D01*
G37*
X96520000Y-96139000D02*
X88209000Y-96139000D01*
X88209000Y-95603947D01*
X88725658Y-95603947D01*
X88839621Y-95883773D01*
X89494629Y-96131170D01*
X90194451Y-96109075D01*
X90738379Y-95883773D01*
X90852342Y-95603947D01*
X89789000Y-94540605D01*
X88725658Y-95603947D01*
X88209000Y-95603947D01*
X88209000Y-95172221D01*
X88266227Y-95310379D01*
X88546053Y-95424342D01*
X89609395Y-94361000D01*
X89968605Y-94361000D01*
X91031947Y-95424342D01*
X91311773Y-95310379D01*
X91559170Y-94655371D01*
X91558898Y-94646750D01*
X93345000Y-94646750D01*
X93345000Y-95249309D01*
X93441673Y-95482698D01*
X93620301Y-95661327D01*
X93853690Y-95758000D01*
X94456250Y-95758000D01*
X94615000Y-95599250D01*
X94615000Y-94488000D01*
X94869000Y-94488000D01*
X94869000Y-95599250D01*
X95027750Y-95758000D01*
X95630310Y-95758000D01*
X95863699Y-95661327D01*
X96042327Y-95482698D01*
X96139000Y-95249309D01*
X96139000Y-94646750D01*
X95980250Y-94488000D01*
X94869000Y-94488000D01*
X94615000Y-94488000D01*
X93503750Y-94488000D01*
X93345000Y-94646750D01*
X91558898Y-94646750D01*
X91537075Y-93955549D01*
X91337069Y-93472691D01*
X93345000Y-93472691D01*
X93345000Y-94075250D01*
X93503750Y-94234000D01*
X94615000Y-94234000D01*
X94615000Y-93122750D01*
X94869000Y-93122750D01*
X94869000Y-94234000D01*
X95980250Y-94234000D01*
X96139000Y-94075250D01*
X96139000Y-93472691D01*
X96042327Y-93239302D01*
X95863699Y-93060673D01*
X95630310Y-92964000D01*
X95027750Y-92964000D01*
X94869000Y-93122750D01*
X94615000Y-93122750D01*
X94456250Y-92964000D01*
X93853690Y-92964000D01*
X93620301Y-93060673D01*
X93441673Y-93239302D01*
X93345000Y-93472691D01*
X91337069Y-93472691D01*
X91311773Y-93411621D01*
X91031947Y-93297658D01*
X89968605Y-94361000D01*
X89609395Y-94361000D01*
X88546053Y-93297658D01*
X88266227Y-93411621D01*
X88209000Y-93563135D01*
X88209000Y-93118053D01*
X88725658Y-93118053D01*
X89789000Y-94181395D01*
X90852342Y-93118053D01*
X90738379Y-92838227D01*
X90083371Y-92590830D01*
X89383549Y-92612925D01*
X88839621Y-92838227D01*
X88725658Y-93118053D01*
X88209000Y-93118053D01*
X88209000Y-91948000D01*
X96520000Y-91948000D01*
X96520000Y-96139000D01*
G36*
X91694000Y-101727000D02*
X88209000Y-101727000D01*
X88209000Y-100607747D01*
X88725658Y-100607747D01*
X88839621Y-100887573D01*
X89494629Y-101134970D01*
X90194451Y-101112875D01*
X90738379Y-100887573D01*
X90852342Y-100607747D01*
X89789000Y-99544405D01*
X88725658Y-100607747D01*
X88209000Y-100607747D01*
X88209000Y-100176021D01*
X88266227Y-100314179D01*
X88546053Y-100428142D01*
X89609395Y-99364800D01*
X89968605Y-99364800D01*
X91031947Y-100428142D01*
X91311773Y-100314179D01*
X91559170Y-99659171D01*
X91537075Y-98959349D01*
X91311773Y-98415421D01*
X91031947Y-98301458D01*
X89968605Y-99364800D01*
X89609395Y-99364800D01*
X88546053Y-98301458D01*
X88266227Y-98415421D01*
X88209000Y-98566935D01*
X88209000Y-98121853D01*
X88725658Y-98121853D01*
X89789000Y-99185195D01*
X90852342Y-98121853D01*
X90738379Y-97842027D01*
X90083371Y-97594630D01*
X89383549Y-97616725D01*
X88839621Y-97842027D01*
X88725658Y-98121853D01*
X88209000Y-98121853D01*
X88209000Y-95603947D01*
X88725658Y-95603947D01*
X88839621Y-95883773D01*
X89494629Y-96131170D01*
X90194451Y-96109075D01*
X90738379Y-95883773D01*
X90852342Y-95603947D01*
X89789000Y-94540605D01*
X88725658Y-95603947D01*
X88209000Y-95603947D01*
X88209000Y-95172221D01*
X88266227Y-95310379D01*
X88546053Y-95424342D01*
X89609395Y-94361000D01*
X89968605Y-94361000D01*
X91031947Y-95424342D01*
X91311773Y-95310379D01*
X91559170Y-94655371D01*
X91537075Y-93955549D01*
X91311773Y-93411621D01*
X91031947Y-93297658D01*
X89968605Y-94361000D01*
X89609395Y-94361000D01*
X88546053Y-93297658D01*
X88266227Y-93411621D01*
X88209000Y-93563135D01*
X88209000Y-93118053D01*
X88725658Y-93118053D01*
X89789000Y-94181395D01*
X90852342Y-93118053D01*
X90738379Y-92838227D01*
X90083371Y-92590830D01*
X89383549Y-92612925D01*
X88839621Y-92838227D01*
X88725658Y-93118053D01*
X88209000Y-93118053D01*
X88209000Y-91948000D01*
X91694000Y-91948000D01*
X91694000Y-101727000D01*
X91694000Y-101727000D01*
G37*
X91694000Y-101727000D02*
X88209000Y-101727000D01*
X88209000Y-100607747D01*
X88725658Y-100607747D01*
X88839621Y-100887573D01*
X89494629Y-101134970D01*
X90194451Y-101112875D01*
X90738379Y-100887573D01*
X90852342Y-100607747D01*
X89789000Y-99544405D01*
X88725658Y-100607747D01*
X88209000Y-100607747D01*
X88209000Y-100176021D01*
X88266227Y-100314179D01*
X88546053Y-100428142D01*
X89609395Y-99364800D01*
X89968605Y-99364800D01*
X91031947Y-100428142D01*
X91311773Y-100314179D01*
X91559170Y-99659171D01*
X91537075Y-98959349D01*
X91311773Y-98415421D01*
X91031947Y-98301458D01*
X89968605Y-99364800D01*
X89609395Y-99364800D01*
X88546053Y-98301458D01*
X88266227Y-98415421D01*
X88209000Y-98566935D01*
X88209000Y-98121853D01*
X88725658Y-98121853D01*
X89789000Y-99185195D01*
X90852342Y-98121853D01*
X90738379Y-97842027D01*
X90083371Y-97594630D01*
X89383549Y-97616725D01*
X88839621Y-97842027D01*
X88725658Y-98121853D01*
X88209000Y-98121853D01*
X88209000Y-95603947D01*
X88725658Y-95603947D01*
X88839621Y-95883773D01*
X89494629Y-96131170D01*
X90194451Y-96109075D01*
X90738379Y-95883773D01*
X90852342Y-95603947D01*
X89789000Y-94540605D01*
X88725658Y-95603947D01*
X88209000Y-95603947D01*
X88209000Y-95172221D01*
X88266227Y-95310379D01*
X88546053Y-95424342D01*
X89609395Y-94361000D01*
X89968605Y-94361000D01*
X91031947Y-95424342D01*
X91311773Y-95310379D01*
X91559170Y-94655371D01*
X91537075Y-93955549D01*
X91311773Y-93411621D01*
X91031947Y-93297658D01*
X89968605Y-94361000D01*
X89609395Y-94361000D01*
X88546053Y-93297658D01*
X88266227Y-93411621D01*
X88209000Y-93563135D01*
X88209000Y-93118053D01*
X88725658Y-93118053D01*
X89789000Y-94181395D01*
X90852342Y-93118053D01*
X90738379Y-92838227D01*
X90083371Y-92590830D01*
X89383549Y-92612925D01*
X88839621Y-92838227D01*
X88725658Y-93118053D01*
X88209000Y-93118053D01*
X88209000Y-91948000D01*
X91694000Y-91948000D01*
X91694000Y-101727000D01*
G36*
X142042000Y-130739000D02*
X118491000Y-130739000D01*
X118491000Y-128936750D01*
X124059950Y-128936750D01*
X124059950Y-129177359D01*
X124156623Y-129410748D01*
X124335251Y-129589377D01*
X124568640Y-129686050D01*
X124809250Y-129686050D01*
X124968000Y-129527300D01*
X124968000Y-128778000D01*
X125222000Y-128778000D01*
X125222000Y-129527300D01*
X125380750Y-129686050D01*
X125621360Y-129686050D01*
X125854749Y-129589377D01*
X126033377Y-129410748D01*
X126130050Y-129177359D01*
X126130050Y-129063750D01*
X126677000Y-129063750D01*
X126677000Y-129504309D01*
X126773673Y-129737698D01*
X126952301Y-129916327D01*
X127185690Y-130013000D01*
X127476250Y-130013000D01*
X127635000Y-129854250D01*
X127635000Y-128905000D01*
X127889000Y-128905000D01*
X127889000Y-129854250D01*
X128047750Y-130013000D01*
X128338310Y-130013000D01*
X128571699Y-129916327D01*
X128750327Y-129737698D01*
X128847000Y-129504309D01*
X128847000Y-129367016D01*
X131233590Y-129367016D01*
X131289271Y-129597611D01*
X131772078Y-129765622D01*
X132282428Y-129736083D01*
X132616729Y-129597611D01*
X132672410Y-129367016D01*
X131953000Y-128647605D01*
X131233590Y-129367016D01*
X128847000Y-129367016D01*
X128847000Y-129063750D01*
X128688250Y-128905000D01*
X127889000Y-128905000D01*
X127635000Y-128905000D01*
X126835750Y-128905000D01*
X126677000Y-129063750D01*
X126130050Y-129063750D01*
X126130050Y-128936750D01*
X125971300Y-128778000D01*
X125222000Y-128778000D01*
X124968000Y-128778000D01*
X124218700Y-128778000D01*
X124059950Y-128936750D01*
X118491000Y-128936750D01*
X118491000Y-128203000D01*
X122331864Y-128203000D01*
X122340845Y-128248148D01*
X122424169Y-128372851D01*
X122548872Y-128456175D01*
X122695970Y-128485435D01*
X123496070Y-128485435D01*
X123643168Y-128456175D01*
X123767871Y-128372851D01*
X123851195Y-128248148D01*
X123875762Y-128124641D01*
X124059950Y-128124641D01*
X124059950Y-128365250D01*
X124218700Y-128524000D01*
X124968000Y-128524000D01*
X124968000Y-127774700D01*
X125222000Y-127774700D01*
X125222000Y-128524000D01*
X125971300Y-128524000D01*
X126130050Y-128365250D01*
X126130050Y-128124641D01*
X126033377Y-127891252D01*
X125854749Y-127712623D01*
X125621360Y-127615950D01*
X125380750Y-127615950D01*
X125222000Y-127774700D01*
X124968000Y-127774700D01*
X124809250Y-127615950D01*
X124568640Y-127615950D01*
X124335251Y-127712623D01*
X124156623Y-127891252D01*
X124059950Y-128124641D01*
X123875762Y-128124641D01*
X123880455Y-128101050D01*
X123880455Y-127300950D01*
X123851195Y-127153852D01*
X123767871Y-127029149D01*
X123643168Y-126945825D01*
X123496070Y-126916565D01*
X122695970Y-126916565D01*
X122548872Y-126945825D01*
X122424169Y-127029149D01*
X122340845Y-127153852D01*
X122331864Y-127199000D01*
X118491000Y-127199000D01*
X118491000Y-125683320D01*
X127074440Y-125683320D01*
X127040199Y-125706199D01*
X126956875Y-125830902D01*
X126927615Y-125978000D01*
X126927615Y-126174000D01*
X125830229Y-126174000D01*
X125766851Y-126079149D01*
X125642148Y-125995825D01*
X125495050Y-125966565D01*
X124694950Y-125966565D01*
X124547852Y-125995825D01*
X124423149Y-126079149D01*
X124339825Y-126203852D01*
X124310565Y-126350950D01*
X124310565Y-127151050D01*
X124339825Y-127298148D01*
X124423149Y-127422851D01*
X124547852Y-127506175D01*
X124694950Y-127535435D01*
X125495050Y-127535435D01*
X125642148Y-127506175D01*
X125766851Y-127422851D01*
X125830229Y-127328000D01*
X126958814Y-127328000D01*
X127040199Y-127449801D01*
X127164902Y-127533125D01*
X127214546Y-127543000D01*
X127185690Y-127543000D01*
X126952301Y-127639673D01*
X126773673Y-127818302D01*
X126677000Y-128051691D01*
X126677000Y-128492250D01*
X126835750Y-128651000D01*
X127635000Y-128651000D01*
X127635000Y-128631000D01*
X127889000Y-128631000D01*
X127889000Y-128651000D01*
X128688250Y-128651000D01*
X128847000Y-128492250D01*
X128847000Y-128287078D01*
X130655378Y-128287078D01*
X130684917Y-128797428D01*
X130823389Y-129131729D01*
X131053984Y-129187410D01*
X131773395Y-128468000D01*
X132132605Y-128468000D01*
X132852016Y-129187410D01*
X133082611Y-129131729D01*
X133250622Y-128648922D01*
X133221083Y-128138572D01*
X133209355Y-128110256D01*
X138197740Y-128110256D01*
X138425924Y-128662503D01*
X138848074Y-129085391D01*
X139399923Y-129314539D01*
X139997456Y-129315060D01*
X140549703Y-129086876D01*
X140972591Y-128664726D01*
X141201739Y-128112877D01*
X141202260Y-127515344D01*
X140974076Y-126963097D01*
X140551926Y-126540209D01*
X140000077Y-126311061D01*
X139402544Y-126310540D01*
X138850297Y-126538724D01*
X138427409Y-126960874D01*
X138198261Y-127512723D01*
X138197740Y-128110256D01*
X133209355Y-128110256D01*
X133082611Y-127804271D01*
X132852016Y-127748590D01*
X132132605Y-128468000D01*
X131773395Y-128468000D01*
X131053984Y-127748590D01*
X130823389Y-127804271D01*
X130655378Y-128287078D01*
X128847000Y-128287078D01*
X128847000Y-128051691D01*
X128750327Y-127818302D01*
X128571699Y-127639673D01*
X128401041Y-127568984D01*
X131233590Y-127568984D01*
X131953000Y-128288395D01*
X132672410Y-127568984D01*
X132616729Y-127338389D01*
X132133922Y-127170378D01*
X131623572Y-127199917D01*
X131289271Y-127338389D01*
X131233590Y-127568984D01*
X128401041Y-127568984D01*
X128338310Y-127543000D01*
X128309454Y-127543000D01*
X128359098Y-127533125D01*
X128483801Y-127449801D01*
X128567125Y-127325098D01*
X128596385Y-127178000D01*
X128596385Y-125978000D01*
X128567125Y-125830902D01*
X128483801Y-125706199D01*
X128449560Y-125683320D01*
X130839675Y-125683320D01*
X130839680Y-125683321D01*
X130928109Y-125665731D01*
X130947875Y-125765098D01*
X131031199Y-125889801D01*
X131155902Y-125973125D01*
X131303000Y-126002385D01*
X132603000Y-126002385D01*
X132750098Y-125973125D01*
X132874801Y-125889801D01*
X132904736Y-125845000D01*
X133397980Y-125845000D01*
X133514902Y-125923125D01*
X133662000Y-125952385D01*
X134562000Y-125952385D01*
X134709098Y-125923125D01*
X134833801Y-125839801D01*
X134917125Y-125715098D01*
X134946385Y-125568000D01*
X134946385Y-125223881D01*
X136637133Y-123533133D01*
X136827242Y-123248613D01*
X136855519Y-123106456D01*
X138197740Y-123106456D01*
X138425924Y-123658703D01*
X138848074Y-124081591D01*
X139399923Y-124310739D01*
X139997456Y-124311260D01*
X140549703Y-124083076D01*
X140972591Y-123660926D01*
X141201739Y-123109077D01*
X141202260Y-122511544D01*
X140974076Y-121959297D01*
X140551926Y-121536409D01*
X140000077Y-121307261D01*
X139402544Y-121306740D01*
X138850297Y-121534924D01*
X138427409Y-121957074D01*
X138198261Y-122508923D01*
X138197740Y-123106456D01*
X136855519Y-123106456D01*
X136894001Y-122913000D01*
X136894000Y-122912995D01*
X136894000Y-119048147D01*
X138636658Y-119048147D01*
X138750621Y-119327973D01*
X139405629Y-119575370D01*
X140105451Y-119553275D01*
X140649379Y-119327973D01*
X140763342Y-119048147D01*
X139700000Y-117984805D01*
X138636658Y-119048147D01*
X136894000Y-119048147D01*
X136894000Y-117510829D01*
X137929830Y-117510829D01*
X137951925Y-118210651D01*
X138177227Y-118754579D01*
X138457053Y-118868542D01*
X139520395Y-117805200D01*
X139879605Y-117805200D01*
X140942947Y-118868542D01*
X141222773Y-118754579D01*
X141470170Y-118099571D01*
X141448075Y-117399749D01*
X141222773Y-116855821D01*
X140942947Y-116741858D01*
X139879605Y-117805200D01*
X139520395Y-117805200D01*
X138457053Y-116741858D01*
X138177227Y-116855821D01*
X137929830Y-117510829D01*
X136894000Y-117510829D01*
X136894000Y-116747000D01*
X136857252Y-116562253D01*
X138636658Y-116562253D01*
X139700000Y-117625595D01*
X140763342Y-116562253D01*
X140649379Y-116282427D01*
X139994371Y-116035030D01*
X139294549Y-116057125D01*
X138750621Y-116282427D01*
X138636658Y-116562253D01*
X136857252Y-116562253D01*
X136827242Y-116411387D01*
X136700698Y-116222000D01*
X136827242Y-116032613D01*
X136894000Y-115697000D01*
X136894000Y-108561913D01*
X137984992Y-108561913D01*
X138054457Y-108804097D01*
X138577902Y-108990844D01*
X139132968Y-108963062D01*
X139516743Y-108804097D01*
X139586208Y-108561913D01*
X138785600Y-107761305D01*
X137984992Y-108561913D01*
X136894000Y-108561913D01*
X136894000Y-107374002D01*
X137376456Y-107374002D01*
X137404238Y-107929068D01*
X137563203Y-108312843D01*
X137805387Y-108382308D01*
X138605995Y-107581700D01*
X138965205Y-107581700D01*
X139765813Y-108382308D01*
X140007997Y-108312843D01*
X140194744Y-107789398D01*
X140166962Y-107234332D01*
X140007997Y-106850557D01*
X139765813Y-106781092D01*
X138965205Y-107581700D01*
X138605995Y-107581700D01*
X137805387Y-106781092D01*
X137563203Y-106850557D01*
X137376456Y-107374002D01*
X136894000Y-107374002D01*
X136894000Y-106601487D01*
X137984992Y-106601487D01*
X138785600Y-107402095D01*
X139586208Y-106601487D01*
X139516743Y-106359303D01*
X138993298Y-106172556D01*
X138438232Y-106200338D01*
X138054457Y-106359303D01*
X137984992Y-106601487D01*
X136894000Y-106601487D01*
X136894000Y-105918000D01*
X142042000Y-105918000D01*
X142042000Y-130739000D01*
X142042000Y-130739000D01*
G37*
X142042000Y-130739000D02*
X118491000Y-130739000D01*
X118491000Y-128936750D01*
X124059950Y-128936750D01*
X124059950Y-129177359D01*
X124156623Y-129410748D01*
X124335251Y-129589377D01*
X124568640Y-129686050D01*
X124809250Y-129686050D01*
X124968000Y-129527300D01*
X124968000Y-128778000D01*
X125222000Y-128778000D01*
X125222000Y-129527300D01*
X125380750Y-129686050D01*
X125621360Y-129686050D01*
X125854749Y-129589377D01*
X126033377Y-129410748D01*
X126130050Y-129177359D01*
X126130050Y-129063750D01*
X126677000Y-129063750D01*
X126677000Y-129504309D01*
X126773673Y-129737698D01*
X126952301Y-129916327D01*
X127185690Y-130013000D01*
X127476250Y-130013000D01*
X127635000Y-129854250D01*
X127635000Y-128905000D01*
X127889000Y-128905000D01*
X127889000Y-129854250D01*
X128047750Y-130013000D01*
X128338310Y-130013000D01*
X128571699Y-129916327D01*
X128750327Y-129737698D01*
X128847000Y-129504309D01*
X128847000Y-129367016D01*
X131233590Y-129367016D01*
X131289271Y-129597611D01*
X131772078Y-129765622D01*
X132282428Y-129736083D01*
X132616729Y-129597611D01*
X132672410Y-129367016D01*
X131953000Y-128647605D01*
X131233590Y-129367016D01*
X128847000Y-129367016D01*
X128847000Y-129063750D01*
X128688250Y-128905000D01*
X127889000Y-128905000D01*
X127635000Y-128905000D01*
X126835750Y-128905000D01*
X126677000Y-129063750D01*
X126130050Y-129063750D01*
X126130050Y-128936750D01*
X125971300Y-128778000D01*
X125222000Y-128778000D01*
X124968000Y-128778000D01*
X124218700Y-128778000D01*
X124059950Y-128936750D01*
X118491000Y-128936750D01*
X118491000Y-128203000D01*
X122331864Y-128203000D01*
X122340845Y-128248148D01*
X122424169Y-128372851D01*
X122548872Y-128456175D01*
X122695970Y-128485435D01*
X123496070Y-128485435D01*
X123643168Y-128456175D01*
X123767871Y-128372851D01*
X123851195Y-128248148D01*
X123875762Y-128124641D01*
X124059950Y-128124641D01*
X124059950Y-128365250D01*
X124218700Y-128524000D01*
X124968000Y-128524000D01*
X124968000Y-127774700D01*
X125222000Y-127774700D01*
X125222000Y-128524000D01*
X125971300Y-128524000D01*
X126130050Y-128365250D01*
X126130050Y-128124641D01*
X126033377Y-127891252D01*
X125854749Y-127712623D01*
X125621360Y-127615950D01*
X125380750Y-127615950D01*
X125222000Y-127774700D01*
X124968000Y-127774700D01*
X124809250Y-127615950D01*
X124568640Y-127615950D01*
X124335251Y-127712623D01*
X124156623Y-127891252D01*
X124059950Y-128124641D01*
X123875762Y-128124641D01*
X123880455Y-128101050D01*
X123880455Y-127300950D01*
X123851195Y-127153852D01*
X123767871Y-127029149D01*
X123643168Y-126945825D01*
X123496070Y-126916565D01*
X122695970Y-126916565D01*
X122548872Y-126945825D01*
X122424169Y-127029149D01*
X122340845Y-127153852D01*
X122331864Y-127199000D01*
X118491000Y-127199000D01*
X118491000Y-125683320D01*
X127074440Y-125683320D01*
X127040199Y-125706199D01*
X126956875Y-125830902D01*
X126927615Y-125978000D01*
X126927615Y-126174000D01*
X125830229Y-126174000D01*
X125766851Y-126079149D01*
X125642148Y-125995825D01*
X125495050Y-125966565D01*
X124694950Y-125966565D01*
X124547852Y-125995825D01*
X124423149Y-126079149D01*
X124339825Y-126203852D01*
X124310565Y-126350950D01*
X124310565Y-127151050D01*
X124339825Y-127298148D01*
X124423149Y-127422851D01*
X124547852Y-127506175D01*
X124694950Y-127535435D01*
X125495050Y-127535435D01*
X125642148Y-127506175D01*
X125766851Y-127422851D01*
X125830229Y-127328000D01*
X126958814Y-127328000D01*
X127040199Y-127449801D01*
X127164902Y-127533125D01*
X127214546Y-127543000D01*
X127185690Y-127543000D01*
X126952301Y-127639673D01*
X126773673Y-127818302D01*
X126677000Y-128051691D01*
X126677000Y-128492250D01*
X126835750Y-128651000D01*
X127635000Y-128651000D01*
X127635000Y-128631000D01*
X127889000Y-128631000D01*
X127889000Y-128651000D01*
X128688250Y-128651000D01*
X128847000Y-128492250D01*
X128847000Y-128287078D01*
X130655378Y-128287078D01*
X130684917Y-128797428D01*
X130823389Y-129131729D01*
X131053984Y-129187410D01*
X131773395Y-128468000D01*
X132132605Y-128468000D01*
X132852016Y-129187410D01*
X133082611Y-129131729D01*
X133250622Y-128648922D01*
X133221083Y-128138572D01*
X133209355Y-128110256D01*
X138197740Y-128110256D01*
X138425924Y-128662503D01*
X138848074Y-129085391D01*
X139399923Y-129314539D01*
X139997456Y-129315060D01*
X140549703Y-129086876D01*
X140972591Y-128664726D01*
X141201739Y-128112877D01*
X141202260Y-127515344D01*
X140974076Y-126963097D01*
X140551926Y-126540209D01*
X140000077Y-126311061D01*
X139402544Y-126310540D01*
X138850297Y-126538724D01*
X138427409Y-126960874D01*
X138198261Y-127512723D01*
X138197740Y-128110256D01*
X133209355Y-128110256D01*
X133082611Y-127804271D01*
X132852016Y-127748590D01*
X132132605Y-128468000D01*
X131773395Y-128468000D01*
X131053984Y-127748590D01*
X130823389Y-127804271D01*
X130655378Y-128287078D01*
X128847000Y-128287078D01*
X128847000Y-128051691D01*
X128750327Y-127818302D01*
X128571699Y-127639673D01*
X128401041Y-127568984D01*
X131233590Y-127568984D01*
X131953000Y-128288395D01*
X132672410Y-127568984D01*
X132616729Y-127338389D01*
X132133922Y-127170378D01*
X131623572Y-127199917D01*
X131289271Y-127338389D01*
X131233590Y-127568984D01*
X128401041Y-127568984D01*
X128338310Y-127543000D01*
X128309454Y-127543000D01*
X128359098Y-127533125D01*
X128483801Y-127449801D01*
X128567125Y-127325098D01*
X128596385Y-127178000D01*
X128596385Y-125978000D01*
X128567125Y-125830902D01*
X128483801Y-125706199D01*
X128449560Y-125683320D01*
X130839675Y-125683320D01*
X130839680Y-125683321D01*
X130928109Y-125665731D01*
X130947875Y-125765098D01*
X131031199Y-125889801D01*
X131155902Y-125973125D01*
X131303000Y-126002385D01*
X132603000Y-126002385D01*
X132750098Y-125973125D01*
X132874801Y-125889801D01*
X132904736Y-125845000D01*
X133397980Y-125845000D01*
X133514902Y-125923125D01*
X133662000Y-125952385D01*
X134562000Y-125952385D01*
X134709098Y-125923125D01*
X134833801Y-125839801D01*
X134917125Y-125715098D01*
X134946385Y-125568000D01*
X134946385Y-125223881D01*
X136637133Y-123533133D01*
X136827242Y-123248613D01*
X136855519Y-123106456D01*
X138197740Y-123106456D01*
X138425924Y-123658703D01*
X138848074Y-124081591D01*
X139399923Y-124310739D01*
X139997456Y-124311260D01*
X140549703Y-124083076D01*
X140972591Y-123660926D01*
X141201739Y-123109077D01*
X141202260Y-122511544D01*
X140974076Y-121959297D01*
X140551926Y-121536409D01*
X140000077Y-121307261D01*
X139402544Y-121306740D01*
X138850297Y-121534924D01*
X138427409Y-121957074D01*
X138198261Y-122508923D01*
X138197740Y-123106456D01*
X136855519Y-123106456D01*
X136894001Y-122913000D01*
X136894000Y-122912995D01*
X136894000Y-119048147D01*
X138636658Y-119048147D01*
X138750621Y-119327973D01*
X139405629Y-119575370D01*
X140105451Y-119553275D01*
X140649379Y-119327973D01*
X140763342Y-119048147D01*
X139700000Y-117984805D01*
X138636658Y-119048147D01*
X136894000Y-119048147D01*
X136894000Y-117510829D01*
X137929830Y-117510829D01*
X137951925Y-118210651D01*
X138177227Y-118754579D01*
X138457053Y-118868542D01*
X139520395Y-117805200D01*
X139879605Y-117805200D01*
X140942947Y-118868542D01*
X141222773Y-118754579D01*
X141470170Y-118099571D01*
X141448075Y-117399749D01*
X141222773Y-116855821D01*
X140942947Y-116741858D01*
X139879605Y-117805200D01*
X139520395Y-117805200D01*
X138457053Y-116741858D01*
X138177227Y-116855821D01*
X137929830Y-117510829D01*
X136894000Y-117510829D01*
X136894000Y-116747000D01*
X136857252Y-116562253D01*
X138636658Y-116562253D01*
X139700000Y-117625595D01*
X140763342Y-116562253D01*
X140649379Y-116282427D01*
X139994371Y-116035030D01*
X139294549Y-116057125D01*
X138750621Y-116282427D01*
X138636658Y-116562253D01*
X136857252Y-116562253D01*
X136827242Y-116411387D01*
X136700698Y-116222000D01*
X136827242Y-116032613D01*
X136894000Y-115697000D01*
X136894000Y-108561913D01*
X137984992Y-108561913D01*
X138054457Y-108804097D01*
X138577902Y-108990844D01*
X139132968Y-108963062D01*
X139516743Y-108804097D01*
X139586208Y-108561913D01*
X138785600Y-107761305D01*
X137984992Y-108561913D01*
X136894000Y-108561913D01*
X136894000Y-107374002D01*
X137376456Y-107374002D01*
X137404238Y-107929068D01*
X137563203Y-108312843D01*
X137805387Y-108382308D01*
X138605995Y-107581700D01*
X138965205Y-107581700D01*
X139765813Y-108382308D01*
X140007997Y-108312843D01*
X140194744Y-107789398D01*
X140166962Y-107234332D01*
X140007997Y-106850557D01*
X139765813Y-106781092D01*
X138965205Y-107581700D01*
X138605995Y-107581700D01*
X137805387Y-106781092D01*
X137563203Y-106850557D01*
X137376456Y-107374002D01*
X136894000Y-107374002D01*
X136894000Y-106601487D01*
X137984992Y-106601487D01*
X138785600Y-107402095D01*
X139586208Y-106601487D01*
X139516743Y-106359303D01*
X138993298Y-106172556D01*
X138438232Y-106200338D01*
X138054457Y-106359303D01*
X137984992Y-106601487D01*
X136894000Y-106601487D01*
X136894000Y-105918000D01*
X142042000Y-105918000D01*
X142042000Y-130739000D01*
G36*
X135140000Y-115697000D02*
X135206758Y-116032613D01*
X135333302Y-116222000D01*
X135206758Y-116411387D01*
X135140000Y-116747000D01*
X135140000Y-121904081D01*
X135100327Y-121808302D01*
X134921699Y-121629673D01*
X134688310Y-121533000D01*
X134397750Y-121533000D01*
X134239000Y-121691750D01*
X134239000Y-122641000D01*
X134259000Y-122641000D01*
X134259000Y-122895000D01*
X134239000Y-122895000D01*
X134239000Y-122915000D01*
X133985000Y-122915000D01*
X133985000Y-122895000D01*
X133185750Y-122895000D01*
X133027000Y-123053750D01*
X133027000Y-123494309D01*
X133123673Y-123727698D01*
X133302301Y-123906327D01*
X133535690Y-124003000D01*
X133564546Y-124003000D01*
X133514902Y-124012875D01*
X133397980Y-124091000D01*
X132904736Y-124091000D01*
X132874801Y-124046199D01*
X132750098Y-123962875D01*
X132603000Y-123933615D01*
X131303000Y-123933615D01*
X131155902Y-123962875D01*
X131031199Y-124046199D01*
X130947875Y-124170902D01*
X130918615Y-124318000D01*
X130918615Y-124492730D01*
X130860892Y-124504212D01*
X130698032Y-124613032D01*
X130631744Y-124679320D01*
X126893873Y-124679320D01*
X129531501Y-122041691D01*
X133027000Y-122041691D01*
X133027000Y-122482250D01*
X133185750Y-122641000D01*
X133985000Y-122641000D01*
X133985000Y-121691750D01*
X133826250Y-121533000D01*
X133535690Y-121533000D01*
X133302301Y-121629673D01*
X133123673Y-121808302D01*
X133027000Y-122041691D01*
X129531501Y-122041691D01*
X132854133Y-118719059D01*
X132909374Y-118636385D01*
X133746000Y-118636385D01*
X133893098Y-118607125D01*
X134017801Y-118523801D01*
X134101125Y-118399098D01*
X134130385Y-118252000D01*
X134130385Y-116952000D01*
X134101125Y-116804902D01*
X134017801Y-116680199D01*
X133893098Y-116596875D01*
X133746000Y-116567615D01*
X132446000Y-116567615D01*
X132298902Y-116596875D01*
X132174199Y-116680199D01*
X132090875Y-116804902D01*
X132061615Y-116952000D01*
X132061615Y-117256216D01*
X131898387Y-117288684D01*
X131613868Y-117478794D01*
X131064000Y-118028662D01*
X131064000Y-115001016D01*
X132376590Y-115001016D01*
X132432271Y-115231611D01*
X132915078Y-115399622D01*
X133425428Y-115370083D01*
X133759729Y-115231611D01*
X133815410Y-115001016D01*
X133096000Y-114281605D01*
X132376590Y-115001016D01*
X131064000Y-115001016D01*
X131064000Y-113921078D01*
X131798378Y-113921078D01*
X131827917Y-114431428D01*
X131966389Y-114765729D01*
X132196984Y-114821410D01*
X132916395Y-114102000D01*
X133275605Y-114102000D01*
X133995016Y-114821410D01*
X134225611Y-114765729D01*
X134393622Y-114282922D01*
X134364083Y-113772572D01*
X134225611Y-113438271D01*
X133995016Y-113382590D01*
X133275605Y-114102000D01*
X132916395Y-114102000D01*
X132196984Y-113382590D01*
X131966389Y-113438271D01*
X131798378Y-113921078D01*
X131064000Y-113921078D01*
X131064000Y-113202984D01*
X132376590Y-113202984D01*
X133096000Y-113922395D01*
X133815410Y-113202984D01*
X133759729Y-112972389D01*
X133276922Y-112804378D01*
X132766572Y-112833917D01*
X132432271Y-112972389D01*
X132376590Y-113202984D01*
X131064000Y-113202984D01*
X131064000Y-111204383D01*
X131078867Y-111226633D01*
X131363387Y-111416742D01*
X131699000Y-111483500D01*
X132034613Y-111416742D01*
X132319133Y-111226633D01*
X132509242Y-110942113D01*
X132576000Y-110606500D01*
X132576000Y-109870520D01*
X132654125Y-109753598D01*
X132683385Y-109606500D01*
X132683385Y-108706500D01*
X132654125Y-108559402D01*
X132617000Y-108503841D01*
X132617000Y-107521020D01*
X132695125Y-107404098D01*
X132724385Y-107257000D01*
X132724385Y-106357000D01*
X132695125Y-106209902D01*
X132611801Y-106085199D01*
X132487098Y-106001875D01*
X132340000Y-105972615D01*
X131954239Y-105972615D01*
X131740000Y-105930000D01*
X131525761Y-105972615D01*
X131140000Y-105972615D01*
X131064000Y-105987733D01*
X131064000Y-105918000D01*
X135140000Y-105918000D01*
X135140000Y-115697000D01*
X135140000Y-115697000D01*
G37*
X135140000Y-115697000D02*
X135206758Y-116032613D01*
X135333302Y-116222000D01*
X135206758Y-116411387D01*
X135140000Y-116747000D01*
X135140000Y-121904081D01*
X135100327Y-121808302D01*
X134921699Y-121629673D01*
X134688310Y-121533000D01*
X134397750Y-121533000D01*
X134239000Y-121691750D01*
X134239000Y-122641000D01*
X134259000Y-122641000D01*
X134259000Y-122895000D01*
X134239000Y-122895000D01*
X134239000Y-122915000D01*
X133985000Y-122915000D01*
X133985000Y-122895000D01*
X133185750Y-122895000D01*
X133027000Y-123053750D01*
X133027000Y-123494309D01*
X133123673Y-123727698D01*
X133302301Y-123906327D01*
X133535690Y-124003000D01*
X133564546Y-124003000D01*
X133514902Y-124012875D01*
X133397980Y-124091000D01*
X132904736Y-124091000D01*
X132874801Y-124046199D01*
X132750098Y-123962875D01*
X132603000Y-123933615D01*
X131303000Y-123933615D01*
X131155902Y-123962875D01*
X131031199Y-124046199D01*
X130947875Y-124170902D01*
X130918615Y-124318000D01*
X130918615Y-124492730D01*
X130860892Y-124504212D01*
X130698032Y-124613032D01*
X130631744Y-124679320D01*
X126893873Y-124679320D01*
X129531501Y-122041691D01*
X133027000Y-122041691D01*
X133027000Y-122482250D01*
X133185750Y-122641000D01*
X133985000Y-122641000D01*
X133985000Y-121691750D01*
X133826250Y-121533000D01*
X133535690Y-121533000D01*
X133302301Y-121629673D01*
X133123673Y-121808302D01*
X133027000Y-122041691D01*
X129531501Y-122041691D01*
X132854133Y-118719059D01*
X132909374Y-118636385D01*
X133746000Y-118636385D01*
X133893098Y-118607125D01*
X134017801Y-118523801D01*
X134101125Y-118399098D01*
X134130385Y-118252000D01*
X134130385Y-116952000D01*
X134101125Y-116804902D01*
X134017801Y-116680199D01*
X133893098Y-116596875D01*
X133746000Y-116567615D01*
X132446000Y-116567615D01*
X132298902Y-116596875D01*
X132174199Y-116680199D01*
X132090875Y-116804902D01*
X132061615Y-116952000D01*
X132061615Y-117256216D01*
X131898387Y-117288684D01*
X131613868Y-117478794D01*
X131064000Y-118028662D01*
X131064000Y-115001016D01*
X132376590Y-115001016D01*
X132432271Y-115231611D01*
X132915078Y-115399622D01*
X133425428Y-115370083D01*
X133759729Y-115231611D01*
X133815410Y-115001016D01*
X133096000Y-114281605D01*
X132376590Y-115001016D01*
X131064000Y-115001016D01*
X131064000Y-113921078D01*
X131798378Y-113921078D01*
X131827917Y-114431428D01*
X131966389Y-114765729D01*
X132196984Y-114821410D01*
X132916395Y-114102000D01*
X133275605Y-114102000D01*
X133995016Y-114821410D01*
X134225611Y-114765729D01*
X134393622Y-114282922D01*
X134364083Y-113772572D01*
X134225611Y-113438271D01*
X133995016Y-113382590D01*
X133275605Y-114102000D01*
X132916395Y-114102000D01*
X132196984Y-113382590D01*
X131966389Y-113438271D01*
X131798378Y-113921078D01*
X131064000Y-113921078D01*
X131064000Y-113202984D01*
X132376590Y-113202984D01*
X133096000Y-113922395D01*
X133815410Y-113202984D01*
X133759729Y-112972389D01*
X133276922Y-112804378D01*
X132766572Y-112833917D01*
X132432271Y-112972389D01*
X132376590Y-113202984D01*
X131064000Y-113202984D01*
X131064000Y-111204383D01*
X131078867Y-111226633D01*
X131363387Y-111416742D01*
X131699000Y-111483500D01*
X132034613Y-111416742D01*
X132319133Y-111226633D01*
X132509242Y-110942113D01*
X132576000Y-110606500D01*
X132576000Y-109870520D01*
X132654125Y-109753598D01*
X132683385Y-109606500D01*
X132683385Y-108706500D01*
X132654125Y-108559402D01*
X132617000Y-108503841D01*
X132617000Y-107521020D01*
X132695125Y-107404098D01*
X132724385Y-107257000D01*
X132724385Y-106357000D01*
X132695125Y-106209902D01*
X132611801Y-106085199D01*
X132487098Y-106001875D01*
X132340000Y-105972615D01*
X131954239Y-105972615D01*
X131740000Y-105930000D01*
X131525761Y-105972615D01*
X131140000Y-105972615D01*
X131064000Y-105987733D01*
X131064000Y-105918000D01*
X135140000Y-105918000D01*
X135140000Y-115697000D01*
M02*
