G04 #@! TF.FileFunction,Soldermask,Bot*
%FSLAX46Y46*%
G04 Gerber Fmt 4.6, Leading zero omitted, Abs format (unit mm)*
G04 Created by KiCad (PCBNEW 201611132049+7352~55~ubuntu16.04.1-product) date Tue Nov 15 13:48:38 2016*
%MOMM*%
%LPD*%
G01*
G04 APERTURE LIST*
%ADD10C,0.100000*%
%ADD11R,0.850000X0.990000*%
%ADD12C,1.700000*%
%ADD13R,1.700000X1.700000*%
%ADD14C,2.398980*%
%ADD15C,2.900000*%
%ADD16C,3.400000*%
%ADD17R,1.600000X1.150000*%
%ADD18R,1.150000X1.600000*%
%ADD19R,1.900000X1.650000*%
%ADD20R,2.900000X2.400000*%
%ADD21R,2.200860X2.899360*%
%ADD22R,1.800000X1.740000*%
%ADD23R,3.900000X4.600000*%
%ADD24R,1.900000X1.700000*%
%ADD25R,1.200100X1.200100*%
%ADD26R,1.300000X1.600000*%
%ADD27R,1.700000X1.900000*%
%ADD28R,2.400000X2.100000*%
%ADD29R,1.600000X1.300000*%
%ADD30O,1.873200X1.009600*%
%ADD31C,2.650000*%
%ADD32C,2.000000*%
%ADD33C,1.924000*%
%ADD34C,2.400000*%
%ADD35R,1.924000X2.400000*%
G04 APERTURE END LIST*
D10*
D11*
X116713000Y-107227000D03*
X116713000Y-105117000D03*
D12*
X133096000Y-114102000D03*
D13*
X133096000Y-117602000D03*
D14*
X91440000Y-113157000D03*
X91440000Y-118158260D03*
D15*
X98247200Y-127531900D03*
D16*
X110447200Y-127531900D03*
X110497200Y-115481900D03*
D15*
X98247200Y-115531900D03*
D16*
X96297200Y-121481900D03*
D13*
X93853000Y-97710000D03*
D12*
X93853000Y-92710000D03*
D17*
X124147500Y-104648000D03*
X126047500Y-104648000D03*
D13*
X112522000Y-97790000D03*
D12*
X112522000Y-92790000D03*
X131953000Y-128468000D03*
D13*
X131953000Y-124968000D03*
D18*
X133858000Y-102240000D03*
X133858000Y-104140000D03*
D19*
X126555500Y-101854000D03*
X124055500Y-101854000D03*
D17*
X121158000Y-111887000D03*
X123058000Y-111887000D03*
X121158000Y-109855000D03*
X123058000Y-109855000D03*
D20*
X132143500Y-94361000D03*
X132143500Y-97761000D03*
D21*
X100863400Y-119291100D03*
X100863400Y-123289060D03*
D22*
X136550400Y-99390200D03*
X138734800Y-99390200D03*
D23*
X137668000Y-103124000D03*
D24*
X107551240Y-94556580D03*
X110251240Y-94556580D03*
D25*
X125095000Y-126751000D03*
X125095000Y-128651000D03*
X123096020Y-127701000D03*
D26*
X127762000Y-126578000D03*
X127762000Y-128778000D03*
D27*
X111379000Y-104427000D03*
X111379000Y-101727000D03*
X108839000Y-104427000D03*
X108839000Y-101727000D03*
X113919000Y-101727000D03*
X113919000Y-104427000D03*
D28*
X107315000Y-112268000D03*
X111315000Y-112268000D03*
X114046000Y-112268000D03*
X118046000Y-112268000D03*
D27*
X113157000Y-118491000D03*
X113157000Y-121191000D03*
D29*
X126746000Y-93980000D03*
X124546000Y-93980000D03*
X124165000Y-106680000D03*
X126365000Y-106680000D03*
X129540000Y-106807000D03*
X131740000Y-106807000D03*
X131699000Y-109156500D03*
X129499000Y-109156500D03*
D26*
X131699000Y-104181000D03*
X131699000Y-101981000D03*
D29*
X116672000Y-109220000D03*
X118872000Y-109220000D03*
D26*
X134112000Y-122768000D03*
X134112000Y-124968000D03*
D30*
X118237000Y-124396500D03*
X118237000Y-123126500D03*
X118237000Y-121856500D03*
X118237000Y-120586500D03*
X123825000Y-120586500D03*
X123825000Y-121856500D03*
X123825000Y-123126500D03*
X123825000Y-124396500D03*
D31*
X139700000Y-122809000D03*
X139700000Y-127812800D03*
X139700000Y-117805200D03*
D29*
X126830000Y-97409000D03*
X124630000Y-97409000D03*
D32*
X122936000Y-116332000D03*
X120661000Y-116357000D03*
X125211000Y-116332000D03*
D33*
X120269000Y-107607100D03*
X120269000Y-104584500D03*
X120269000Y-101587300D03*
X120269000Y-98564700D03*
X120269000Y-95567500D03*
D34*
X138785600Y-107581700D03*
X138760200Y-95567500D03*
D35*
X98933000Y-100711000D03*
X104140000Y-100711000D03*
X104140000Y-109118400D03*
X98907600Y-109169200D03*
D13*
X100537000Y-94869000D03*
D12*
X105537000Y-94869000D03*
D31*
X90170000Y-107823000D03*
X90170000Y-102819200D03*
X89789000Y-127304800D03*
X89789000Y-122301000D03*
M02*
