G04 #@! TF.FileFunction,Other,Comment*
%FSLAX46Y46*%
G04 Gerber Fmt 4.6, Leading zero omitted, Abs format (unit mm)*
G04 Created by KiCad (PCBNEW 201611132049+7352~55~ubuntu16.04.1-product) date Tue Nov 15 13:48:38 2016*
%MOMM*%
%LPD*%
G01*
G04 APERTURE LIST*
%ADD10C,0.100000*%
%ADD11C,0.300000*%
G04 APERTURE END LIST*
D10*
D11*
X109696928Y-146451571D02*
X108982642Y-146451571D01*
X108911214Y-147165857D01*
X108982642Y-147094428D01*
X109125500Y-147023000D01*
X109482642Y-147023000D01*
X109625500Y-147094428D01*
X109696928Y-147165857D01*
X109768357Y-147308714D01*
X109768357Y-147665857D01*
X109696928Y-147808714D01*
X109625500Y-147880142D01*
X109482642Y-147951571D01*
X109125500Y-147951571D01*
X108982642Y-147880142D01*
X108911214Y-147808714D01*
X111054071Y-146951571D02*
X111054071Y-147951571D01*
X110696928Y-146380142D02*
X110339785Y-147451571D01*
X111268357Y-147451571D01*
X111839785Y-147808714D02*
X111911214Y-147880142D01*
X111839785Y-147951571D01*
X111768357Y-147880142D01*
X111839785Y-147808714D01*
X111839785Y-147951571D01*
X112411214Y-146451571D02*
X113411214Y-146451571D01*
X112768357Y-147951571D01*
X113839785Y-146451571D02*
X114768357Y-146451571D01*
X114268357Y-147023000D01*
X114482642Y-147023000D01*
X114625500Y-147094428D01*
X114696928Y-147165857D01*
X114768357Y-147308714D01*
X114768357Y-147665857D01*
X114696928Y-147808714D01*
X114625500Y-147880142D01*
X114482642Y-147951571D01*
X114054071Y-147951571D01*
X113911214Y-147880142D01*
X113839785Y-147808714D01*
X115268357Y-146451571D02*
X116268357Y-146451571D01*
X115625500Y-147951571D01*
X117982642Y-147951571D02*
X117982642Y-146951571D01*
X117982642Y-147094428D02*
X118054071Y-147023000D01*
X118196928Y-146951571D01*
X118411214Y-146951571D01*
X118554071Y-147023000D01*
X118625500Y-147165857D01*
X118625500Y-147951571D01*
X118625500Y-147165857D02*
X118696928Y-147023000D01*
X118839785Y-146951571D01*
X119054071Y-146951571D01*
X119196928Y-147023000D01*
X119268357Y-147165857D01*
X119268357Y-147951571D01*
X119982642Y-147951571D02*
X119982642Y-146951571D01*
X119982642Y-147094428D02*
X120054071Y-147023000D01*
X120196928Y-146951571D01*
X120411214Y-146951571D01*
X120554071Y-147023000D01*
X120625500Y-147165857D01*
X120625500Y-147951571D01*
X120625500Y-147165857D02*
X120696928Y-147023000D01*
X120839785Y-146951571D01*
X121054071Y-146951571D01*
X121196928Y-147023000D01*
X121268357Y-147165857D01*
X121268357Y-147951571D01*
X87757000Y-145923000D02*
X142494000Y-145923000D01*
X87757000Y-131318000D02*
X87757000Y-148623000D01*
X142494000Y-131318000D02*
X142494000Y-148623000D01*
X142494000Y-145923000D02*
X141367496Y-146509421D01*
X142494000Y-145923000D02*
X141367496Y-145336579D01*
X87757000Y-145923000D02*
X88883504Y-146509421D01*
X87757000Y-145923000D02*
X88883504Y-145336579D01*
X75298428Y-105117000D02*
X74298428Y-105117000D01*
X75869857Y-104759857D02*
X74798428Y-104402714D01*
X74798428Y-105331285D01*
X74298428Y-106688428D02*
X74298428Y-105831285D01*
X74298428Y-106259857D02*
X75798428Y-106259857D01*
X75584142Y-106117000D01*
X75441285Y-105974142D01*
X75369857Y-105831285D01*
X74441285Y-107331285D02*
X74369857Y-107402714D01*
X74298428Y-107331285D01*
X74369857Y-107259857D01*
X74441285Y-107331285D01*
X74298428Y-107331285D01*
X74298428Y-108831285D02*
X74298428Y-107974142D01*
X74298428Y-108402714D02*
X75798428Y-108402714D01*
X75584142Y-108259857D01*
X75441285Y-108117000D01*
X75369857Y-107974142D01*
X75298428Y-110117000D02*
X74298428Y-110117000D01*
X75869857Y-109759857D02*
X74798428Y-109402714D01*
X74798428Y-110331285D01*
X75155571Y-111117000D02*
X75227000Y-110974142D01*
X75298428Y-110902714D01*
X75441285Y-110831285D01*
X75512714Y-110831285D01*
X75655571Y-110902714D01*
X75727000Y-110974142D01*
X75798428Y-111117000D01*
X75798428Y-111402714D01*
X75727000Y-111545571D01*
X75655571Y-111617000D01*
X75512714Y-111688428D01*
X75441285Y-111688428D01*
X75298428Y-111617000D01*
X75227000Y-111545571D01*
X75155571Y-111402714D01*
X75155571Y-111117000D01*
X75084142Y-110974142D01*
X75012714Y-110902714D01*
X74869857Y-110831285D01*
X74584142Y-110831285D01*
X74441285Y-110902714D01*
X74369857Y-110974142D01*
X74298428Y-111117000D01*
X74298428Y-111402714D01*
X74369857Y-111545571D01*
X74441285Y-111617000D01*
X74584142Y-111688428D01*
X74869857Y-111688428D01*
X75012714Y-111617000D01*
X75084142Y-111545571D01*
X75155571Y-111402714D01*
X74298428Y-113474142D02*
X75298428Y-113474142D01*
X75155571Y-113474142D02*
X75227000Y-113545571D01*
X75298428Y-113688428D01*
X75298428Y-113902714D01*
X75227000Y-114045571D01*
X75084142Y-114117000D01*
X74298428Y-114117000D01*
X75084142Y-114117000D02*
X75227000Y-114188428D01*
X75298428Y-114331285D01*
X75298428Y-114545571D01*
X75227000Y-114688428D01*
X75084142Y-114759857D01*
X74298428Y-114759857D01*
X74298428Y-115474142D02*
X75298428Y-115474142D01*
X75155571Y-115474142D02*
X75227000Y-115545571D01*
X75298428Y-115688428D01*
X75298428Y-115902714D01*
X75227000Y-116045571D01*
X75084142Y-116117000D01*
X74298428Y-116117000D01*
X75084142Y-116117000D02*
X75227000Y-116188428D01*
X75298428Y-116331285D01*
X75298428Y-116545571D01*
X75227000Y-116688428D01*
X75084142Y-116759857D01*
X74298428Y-116759857D01*
X76327000Y-90043000D02*
X76327000Y-131191000D01*
X87630000Y-90043000D02*
X73627000Y-90043000D01*
X87630000Y-131191000D02*
X73627000Y-131191000D01*
X76327000Y-131191000D02*
X75740579Y-130064496D01*
X76327000Y-131191000D02*
X76913421Y-130064496D01*
X76327000Y-90043000D02*
X75740579Y-91169504D01*
X76327000Y-90043000D02*
X76913421Y-91169504D01*
M02*
