M48
;DRILL file {KiCad 201611132049+7352~55~ubuntu16.04.1-product} date Tue Nov 15 13:48:34 2016
;FORMAT={-:-/ absolute / inch / decimal}
FMAT,2
INCH,TZ
T1C0.016
T2C0.024
T3C0.031
T4C0.039
T5C0.039
T6C0.047
T7C0.051
T8C0.059
%
G90
G05
M72
T1
X4.54Y-4.14
X4.6Y-4.88
X4.6475Y-4.475
X4.6475Y-4.71
X5.17Y-4.84
X5.35Y-4.98
T2
X3.99Y-4.055
X4.23Y-4.32
T3
X3.695Y-3.65
X3.695Y-3.8469
X3.9581Y-3.735
X4.155Y-3.735
X4.43Y-3.6531
X4.43Y-3.85
X5.195Y-4.92
X5.195Y-5.0578
X5.24Y-4.4922
X5.24Y-4.63
T4
X3.868Y-4.5485
X3.868Y-5.0209
X4.735Y-3.7625
X4.735Y-3.8805
X4.735Y-3.9995
X4.735Y-4.1175
X4.735Y-4.2365
T5
X3.6Y-4.455
X3.6Y-4.6519
T6
X4.7504Y-4.581
X4.84Y-4.58
X4.9296Y-4.58
T7
X3.7912Y-4.7828
X4.3483Y-5.0209
X4.3503Y-4.5465
T8
X3.535Y-4.815
X3.535Y-5.012
X3.55Y-4.048
X3.55Y-4.245
X5.463Y-3.7625
X5.464Y-4.2355
X5.5Y-4.638
X5.5Y-4.835
X5.5Y-5.032
T0
M30
