G04 #@! TF.FileFunction,Copper,L1,Top,Signal*
%FSLAX46Y46*%
G04 Gerber Fmt 4.6, Leading zero omitted, Abs format (unit mm)*
G04 Created by KiCad (PCBNEW 201611132049+7352~55~ubuntu16.04.1-product) date Tue Nov 15 13:48:37 2016*
%MOMM*%
%LPD*%
G01*
G04 APERTURE LIST*
%ADD10C,0.100000*%
%ADD11C,1.300000*%
%ADD12R,1.300000X1.300000*%
%ADD13C,1.998980*%
%ADD14C,2.500000*%
%ADD15C,3.000000*%
%ADD16C,2.250000*%
%ADD17C,1.600000*%
%ADD18C,1.524000*%
%ADD19C,2.000000*%
%ADD20C,1.000000*%
%ADD21C,0.600000*%
%ADD22C,1.000000*%
%ADD23C,0.400000*%
%ADD24C,0.254000*%
G04 APERTURE END LIST*
D10*
D11*
X133096000Y-114102000D03*
D12*
X133096000Y-117602000D03*
D13*
X91440000Y-113157000D03*
X91440000Y-118158260D03*
D14*
X98247200Y-127531900D03*
D15*
X110447200Y-127531900D03*
X110497200Y-115481900D03*
D14*
X98247200Y-115531900D03*
D15*
X96297200Y-121481900D03*
D12*
X93853000Y-97710000D03*
D11*
X93853000Y-92710000D03*
D12*
X112522000Y-97790000D03*
D11*
X112522000Y-92790000D03*
X131953000Y-128468000D03*
D12*
X131953000Y-124968000D03*
D16*
X139700000Y-122809000D03*
X139700000Y-127812800D03*
X139700000Y-117805200D03*
D17*
X122936000Y-116332000D03*
X120661000Y-116357000D03*
X125211000Y-116332000D03*
D18*
X120269000Y-107607100D03*
X120269000Y-104584500D03*
X120269000Y-101587300D03*
X120269000Y-98564700D03*
X120269000Y-95567500D03*
D19*
X138785600Y-107581700D03*
X138760200Y-95567500D03*
D12*
X100537000Y-94869000D03*
D11*
X105537000Y-94869000D03*
D16*
X90170000Y-107823000D03*
X90170000Y-102819200D03*
X89789000Y-127304800D03*
X89789000Y-122301000D03*
D20*
X101346000Y-102997000D03*
D21*
X131318000Y-122936000D03*
D20*
X107442000Y-109728000D03*
D21*
X135890000Y-126492000D03*
X118046500Y-119634000D03*
X118046500Y-113665000D03*
X115316000Y-105156000D03*
X116840000Y-123952000D03*
D22*
X93853000Y-92710000D02*
X101346000Y-100203000D01*
X101346000Y-100203000D02*
X101346000Y-102997000D01*
X133096000Y-114102000D02*
X135996800Y-114102000D01*
X135996800Y-114102000D02*
X139700000Y-117805200D01*
D23*
X138709400Y-107505500D02*
X138785600Y-107581700D01*
X130302000Y-126817000D02*
X130302000Y-123952000D01*
X130302000Y-123952000D02*
X131318000Y-122936000D01*
X131953000Y-128468000D02*
X130302000Y-126817000D01*
D22*
X112522000Y-97790000D02*
X112522000Y-104648000D01*
X112522000Y-104648000D02*
X107442000Y-109728000D01*
X105537000Y-94869000D02*
X109601000Y-94869000D01*
X109601000Y-94869000D02*
X112522000Y-97790000D01*
D23*
X135890000Y-126492000D02*
X139573000Y-122809000D01*
X139573000Y-122809000D02*
X139700000Y-122809000D01*
D22*
X120661000Y-116357000D02*
X120661000Y-116279500D01*
D23*
X120661000Y-116279500D02*
X118046500Y-113665000D01*
X118046500Y-113665000D02*
X118046500Y-119634000D01*
D22*
X125211000Y-116332000D02*
X125211000Y-100509500D01*
X125211000Y-100509500D02*
X120269000Y-95567500D01*
D23*
X115316000Y-122428000D02*
X115316000Y-105156000D01*
X116840000Y-123952000D02*
X115316000Y-122428000D01*
D22*
X90170000Y-107823000D02*
X90170000Y-102819200D01*
D24*
G36*
X113030000Y-130739000D02*
X88209000Y-130739000D01*
X88209000Y-128547747D01*
X88725658Y-128547747D01*
X88839621Y-128827573D01*
X89494629Y-129074970D01*
X90194451Y-129052875D01*
X90738379Y-128827573D01*
X90852342Y-128547747D01*
X89789000Y-127484405D01*
X88725658Y-128547747D01*
X88209000Y-128547747D01*
X88209000Y-128116021D01*
X88266227Y-128254179D01*
X88546053Y-128368142D01*
X89609395Y-127304800D01*
X89968605Y-127304800D01*
X91031947Y-128368142D01*
X91311773Y-128254179D01*
X91559170Y-127599171D01*
X91537075Y-126899349D01*
X91311773Y-126355421D01*
X91031947Y-126241458D01*
X89968605Y-127304800D01*
X89609395Y-127304800D01*
X88546053Y-126241458D01*
X88266227Y-126355421D01*
X88209000Y-126506935D01*
X88209000Y-125984000D01*
X88757365Y-125984000D01*
X88725658Y-126061853D01*
X89789000Y-127125195D01*
X90852342Y-126061853D01*
X90820635Y-125984000D01*
X93853000Y-125984000D01*
X93853000Y-129413000D01*
X93862667Y-129461601D01*
X93890197Y-129502803D01*
X93931399Y-129530333D01*
X93980000Y-129540000D01*
X107696000Y-129540000D01*
X107744601Y-129530333D01*
X107785803Y-129502803D01*
X107813333Y-129461601D01*
X107823000Y-129413000D01*
X107823000Y-129045870D01*
X109112835Y-129045870D01*
X109272618Y-129364639D01*
X110063387Y-129674623D01*
X110912587Y-129658397D01*
X111621782Y-129364639D01*
X111781565Y-129045870D01*
X110447200Y-127711505D01*
X109112835Y-129045870D01*
X107823000Y-129045870D01*
X107823000Y-127148087D01*
X108304477Y-127148087D01*
X108320703Y-127997287D01*
X108614461Y-128706482D01*
X108933230Y-128866265D01*
X110267595Y-127531900D01*
X110626805Y-127531900D01*
X111961170Y-128866265D01*
X112279939Y-128706482D01*
X112589923Y-127915713D01*
X112573697Y-127066513D01*
X112279939Y-126357318D01*
X111961170Y-126197535D01*
X110626805Y-127531900D01*
X110267595Y-127531900D01*
X108933230Y-126197535D01*
X108614461Y-126357318D01*
X108304477Y-127148087D01*
X107823000Y-127148087D01*
X107823000Y-126017930D01*
X109112835Y-126017930D01*
X110447200Y-127352295D01*
X111781565Y-126017930D01*
X111621782Y-125699161D01*
X110831013Y-125389177D01*
X109981813Y-125405403D01*
X109272618Y-125699161D01*
X109112835Y-126017930D01*
X107823000Y-126017930D01*
X107823000Y-125095000D01*
X113030000Y-125095000D01*
X113030000Y-130739000D01*
X113030000Y-130739000D01*
G37*
X113030000Y-130739000D02*
X88209000Y-130739000D01*
X88209000Y-128547747D01*
X88725658Y-128547747D01*
X88839621Y-128827573D01*
X89494629Y-129074970D01*
X90194451Y-129052875D01*
X90738379Y-128827573D01*
X90852342Y-128547747D01*
X89789000Y-127484405D01*
X88725658Y-128547747D01*
X88209000Y-128547747D01*
X88209000Y-128116021D01*
X88266227Y-128254179D01*
X88546053Y-128368142D01*
X89609395Y-127304800D01*
X89968605Y-127304800D01*
X91031947Y-128368142D01*
X91311773Y-128254179D01*
X91559170Y-127599171D01*
X91537075Y-126899349D01*
X91311773Y-126355421D01*
X91031947Y-126241458D01*
X89968605Y-127304800D01*
X89609395Y-127304800D01*
X88546053Y-126241458D01*
X88266227Y-126355421D01*
X88209000Y-126506935D01*
X88209000Y-125984000D01*
X88757365Y-125984000D01*
X88725658Y-126061853D01*
X89789000Y-127125195D01*
X90852342Y-126061853D01*
X90820635Y-125984000D01*
X93853000Y-125984000D01*
X93853000Y-129413000D01*
X93862667Y-129461601D01*
X93890197Y-129502803D01*
X93931399Y-129530333D01*
X93980000Y-129540000D01*
X107696000Y-129540000D01*
X107744601Y-129530333D01*
X107785803Y-129502803D01*
X107813333Y-129461601D01*
X107823000Y-129413000D01*
X107823000Y-129045870D01*
X109112835Y-129045870D01*
X109272618Y-129364639D01*
X110063387Y-129674623D01*
X110912587Y-129658397D01*
X111621782Y-129364639D01*
X111781565Y-129045870D01*
X110447200Y-127711505D01*
X109112835Y-129045870D01*
X107823000Y-129045870D01*
X107823000Y-127148087D01*
X108304477Y-127148087D01*
X108320703Y-127997287D01*
X108614461Y-128706482D01*
X108933230Y-128866265D01*
X110267595Y-127531900D01*
X110626805Y-127531900D01*
X111961170Y-128866265D01*
X112279939Y-128706482D01*
X112589923Y-127915713D01*
X112573697Y-127066513D01*
X112279939Y-126357318D01*
X111961170Y-126197535D01*
X110626805Y-127531900D01*
X110267595Y-127531900D01*
X108933230Y-126197535D01*
X108614461Y-126357318D01*
X108304477Y-127148087D01*
X107823000Y-127148087D01*
X107823000Y-126017930D01*
X109112835Y-126017930D01*
X110447200Y-127352295D01*
X111781565Y-126017930D01*
X111621782Y-125699161D01*
X110831013Y-125389177D01*
X109981813Y-125405403D01*
X109272618Y-125699161D01*
X109112835Y-126017930D01*
X107823000Y-126017930D01*
X107823000Y-125095000D01*
X113030000Y-125095000D01*
X113030000Y-130739000D01*
G36*
X94360750Y-119126239D02*
X94370414Y-119174841D01*
X94397941Y-119216044D01*
X94439141Y-119243577D01*
X94485702Y-119253231D01*
X98103569Y-119311571D01*
X98095376Y-120289993D01*
X97811170Y-120147535D01*
X96476805Y-121481900D01*
X97811170Y-122816265D01*
X98075332Y-122683854D01*
X98064713Y-123952000D01*
X90428811Y-123952000D01*
X90738379Y-123823773D01*
X90852342Y-123543947D01*
X89789000Y-122480605D01*
X88725658Y-123543947D01*
X88839621Y-123823773D01*
X89179115Y-123952000D01*
X88209000Y-123952000D01*
X88209000Y-123112221D01*
X88266227Y-123250379D01*
X88546053Y-123364342D01*
X89609395Y-122301000D01*
X89968605Y-122301000D01*
X91031947Y-123364342D01*
X91311773Y-123250379D01*
X91407901Y-122995870D01*
X94962835Y-122995870D01*
X95122618Y-123314639D01*
X95913387Y-123624623D01*
X96762587Y-123608397D01*
X97471782Y-123314639D01*
X97631565Y-122995870D01*
X96297200Y-121661505D01*
X94962835Y-122995870D01*
X91407901Y-122995870D01*
X91559170Y-122595371D01*
X91537075Y-121895549D01*
X91311773Y-121351621D01*
X91031947Y-121237658D01*
X89968605Y-122301000D01*
X89609395Y-122301000D01*
X88546053Y-121237658D01*
X88266227Y-121351621D01*
X88209000Y-121503135D01*
X88209000Y-121058053D01*
X88725658Y-121058053D01*
X89789000Y-122121395D01*
X90812308Y-121098087D01*
X94154477Y-121098087D01*
X94170703Y-121947287D01*
X94464461Y-122656482D01*
X94783230Y-122816265D01*
X96117595Y-121481900D01*
X94783230Y-120147535D01*
X94464461Y-120307318D01*
X94154477Y-121098087D01*
X90812308Y-121098087D01*
X90852342Y-121058053D01*
X90738379Y-120778227D01*
X90083371Y-120530830D01*
X89383549Y-120552925D01*
X88839621Y-120778227D01*
X88725658Y-121058053D01*
X88209000Y-121058053D01*
X88209000Y-119967930D01*
X94962835Y-119967930D01*
X96297200Y-121302295D01*
X97631565Y-119967930D01*
X97471782Y-119649161D01*
X96681013Y-119339177D01*
X95831813Y-119355403D01*
X95122618Y-119649161D01*
X94962835Y-119967930D01*
X88209000Y-119967930D01*
X88209000Y-119310423D01*
X90467443Y-119310423D01*
X90566042Y-119577225D01*
X91175582Y-119803661D01*
X91825377Y-119779601D01*
X92313958Y-119577225D01*
X92412557Y-119310423D01*
X91440000Y-118337865D01*
X90467443Y-119310423D01*
X88209000Y-119310423D01*
X88209000Y-117893842D01*
X89794599Y-117893842D01*
X89818659Y-118543637D01*
X90021035Y-119032218D01*
X90287837Y-119130817D01*
X91260395Y-118158260D01*
X91619605Y-118158260D01*
X92592163Y-119130817D01*
X92858965Y-119032218D01*
X93085401Y-118422678D01*
X93061341Y-117772883D01*
X92858965Y-117284302D01*
X92592163Y-117185703D01*
X91619605Y-118158260D01*
X91260395Y-118158260D01*
X90287837Y-117185703D01*
X90021035Y-117284302D01*
X89794599Y-117893842D01*
X88209000Y-117893842D01*
X88209000Y-117006097D01*
X90467443Y-117006097D01*
X91440000Y-117978655D01*
X92412557Y-117006097D01*
X92313958Y-116739295D01*
X91704418Y-116512859D01*
X91054623Y-116536919D01*
X90566042Y-116739295D01*
X90467443Y-117006097D01*
X88209000Y-117006097D01*
X88209000Y-115570000D01*
X94360991Y-115570000D01*
X94360750Y-119126239D01*
X94360750Y-119126239D01*
G37*
X94360750Y-119126239D02*
X94370414Y-119174841D01*
X94397941Y-119216044D01*
X94439141Y-119243577D01*
X94485702Y-119253231D01*
X98103569Y-119311571D01*
X98095376Y-120289993D01*
X97811170Y-120147535D01*
X96476805Y-121481900D01*
X97811170Y-122816265D01*
X98075332Y-122683854D01*
X98064713Y-123952000D01*
X90428811Y-123952000D01*
X90738379Y-123823773D01*
X90852342Y-123543947D01*
X89789000Y-122480605D01*
X88725658Y-123543947D01*
X88839621Y-123823773D01*
X89179115Y-123952000D01*
X88209000Y-123952000D01*
X88209000Y-123112221D01*
X88266227Y-123250379D01*
X88546053Y-123364342D01*
X89609395Y-122301000D01*
X89968605Y-122301000D01*
X91031947Y-123364342D01*
X91311773Y-123250379D01*
X91407901Y-122995870D01*
X94962835Y-122995870D01*
X95122618Y-123314639D01*
X95913387Y-123624623D01*
X96762587Y-123608397D01*
X97471782Y-123314639D01*
X97631565Y-122995870D01*
X96297200Y-121661505D01*
X94962835Y-122995870D01*
X91407901Y-122995870D01*
X91559170Y-122595371D01*
X91537075Y-121895549D01*
X91311773Y-121351621D01*
X91031947Y-121237658D01*
X89968605Y-122301000D01*
X89609395Y-122301000D01*
X88546053Y-121237658D01*
X88266227Y-121351621D01*
X88209000Y-121503135D01*
X88209000Y-121058053D01*
X88725658Y-121058053D01*
X89789000Y-122121395D01*
X90812308Y-121098087D01*
X94154477Y-121098087D01*
X94170703Y-121947287D01*
X94464461Y-122656482D01*
X94783230Y-122816265D01*
X96117595Y-121481900D01*
X94783230Y-120147535D01*
X94464461Y-120307318D01*
X94154477Y-121098087D01*
X90812308Y-121098087D01*
X90852342Y-121058053D01*
X90738379Y-120778227D01*
X90083371Y-120530830D01*
X89383549Y-120552925D01*
X88839621Y-120778227D01*
X88725658Y-121058053D01*
X88209000Y-121058053D01*
X88209000Y-119967930D01*
X94962835Y-119967930D01*
X96297200Y-121302295D01*
X97631565Y-119967930D01*
X97471782Y-119649161D01*
X96681013Y-119339177D01*
X95831813Y-119355403D01*
X95122618Y-119649161D01*
X94962835Y-119967930D01*
X88209000Y-119967930D01*
X88209000Y-119310423D01*
X90467443Y-119310423D01*
X90566042Y-119577225D01*
X91175582Y-119803661D01*
X91825377Y-119779601D01*
X92313958Y-119577225D01*
X92412557Y-119310423D01*
X91440000Y-118337865D01*
X90467443Y-119310423D01*
X88209000Y-119310423D01*
X88209000Y-117893842D01*
X89794599Y-117893842D01*
X89818659Y-118543637D01*
X90021035Y-119032218D01*
X90287837Y-119130817D01*
X91260395Y-118158260D01*
X91619605Y-118158260D01*
X92592163Y-119130817D01*
X92858965Y-119032218D01*
X93085401Y-118422678D01*
X93061341Y-117772883D01*
X92858965Y-117284302D01*
X92592163Y-117185703D01*
X91619605Y-118158260D01*
X91260395Y-118158260D01*
X90287837Y-117185703D01*
X90021035Y-117284302D01*
X89794599Y-117893842D01*
X88209000Y-117893842D01*
X88209000Y-117006097D01*
X90467443Y-117006097D01*
X91440000Y-117978655D01*
X92412557Y-117006097D01*
X92313958Y-116739295D01*
X91704418Y-116512859D01*
X91054623Y-116536919D01*
X90566042Y-116739295D01*
X90467443Y-117006097D01*
X88209000Y-117006097D01*
X88209000Y-115570000D01*
X94360991Y-115570000D01*
X94360750Y-119126239D01*
M02*
