M48
;DRILL file {KiCad 201610091317+7290~55~ubuntu16.04.1-} date Fri Oct 21 11:27:52 2016
;FORMAT={-:-/ absolute / metric / decimal}
FMAT,2
METRIC,TZ
T1C0.400
T2C0.800
T3C1.000
T4C1.001
T5C1.300
T6C1.500
%
G90
G05
M71
T1
X101.346Y-99.949
X115.189Y-104.838
X116.361Y-117.272
X118.046Y-113.665
X118.046Y-119.634
X119.924Y-120.368
X131.318Y-122.936
X135.89Y-126.492
T2
X92.536Y-106.045
X97.536Y-106.045
X103.702Y-108.24
X108.702Y-108.24
X108.924Y-97.526
X113.924Y-97.526
X120.661Y-116.357
X122.936Y-116.332
X125.211Y-116.332
X131.953Y-124.968
X131.953Y-128.468
X133.096Y-114.102
X133.096Y-117.602
T3
X98.247Y-115.532
X98.247Y-127.532
X120.269Y-95.567
X120.269Y-98.565
X120.269Y-101.587
X120.269Y-104.584
X120.269Y-107.607
X138.76Y-95.567
X138.786Y-107.582
T4
X90.678Y-112.474
X90.678Y-117.475
T5
X96.297Y-121.482
X110.447Y-127.532
X110.497Y-115.482
T6
X89.789Y-94.361
X89.789Y-99.365
X89.789Y-122.25
X89.789Y-127.254
X139.7Y-117.805
X139.7Y-122.809
X139.7Y-127.813
T0
M30
